<svg width="22" height="25" viewBox="0 0 22 25" fill="none" xmlns="http://www.w3.org/2000/svg">
<path d="M6.13379 24.2119C4.7373 24.2119 3.75977 23.2559 3.69531 21.8809L2.88965 5.84277H1.35352C1.02051 5.84277 0.730469 5.56348 0.730469 5.21973C0.730469 4.87598 1.02051 4.58594 1.35352 4.58594H6.41309V2.8457C6.41309 1.39551 7.34766 0.525391 8.89453 0.525391H13.0947C14.6416 0.525391 15.5869 1.39551 15.5869 2.8457V4.58594H20.6465C20.9902 4.58594 21.2695 4.86523 21.2695 5.21973C21.2695 5.56348 21.001 5.84277 20.6465 5.84277H19.1211L18.3262 21.8809C18.2617 23.2559 17.2627 24.2119 15.877 24.2119H6.13379ZM7.72363 2.91016V4.58594H14.2656V2.91016C14.2656 2.20117 13.793 1.76074 13.0303 1.76074H8.95898C8.20703 1.76074 7.72363 2.20117 7.72363 2.91016ZM6.24121 22.9551H15.7588C16.4463 22.9551 16.9834 22.4287 17.0156 21.7412L17.7783 5.84277H4.18945L4.99512 21.7412C5.02734 22.4287 5.56445 22.9551 6.24121 22.9551ZM7.79883 20.8818C7.47656 20.8818 7.27246 20.6777 7.26172 20.377L6.90723 8.49609C6.90723 8.19531 7.12207 7.99121 7.44434 7.99121C7.74512 7.99121 7.95996 8.18457 7.9707 8.48535L8.3252 20.377C8.33594 20.667 8.12109 20.8818 7.79883 20.8818ZM11.0107 20.8818C10.6885 20.8818 10.4629 20.6777 10.4629 20.377V8.49609C10.4629 8.19531 10.6885 7.99121 11.0107 7.99121C11.333 7.99121 11.5479 8.19531 11.5479 8.49609V20.377C11.5479 20.6777 11.333 20.8818 11.0107 20.8818ZM14.2119 20.8926C13.8896 20.8926 13.6748 20.6777 13.6855 20.377L14.04 8.48535C14.0508 8.18457 14.2656 7.99121 14.5664 7.99121C14.8887 7.99121 15.1035 8.19531 15.1035 8.50684L14.749 20.3877C14.7383 20.6885 14.5234 20.8926 14.2119 20.8926Z" fill="white"/>
</svg>
