<svg width="22" height="23" viewBox="0 0 22 23" fill="none" xmlns="http://www.w3.org/2000/svg">
<path d="M11 22.0188C5.10254 22.0188 0.225586 17.1418 0.225586 11.2444C0.225586 5.33618 5.0918 0.469971 10.9893 0.469971C16.8975 0.469971 21.7744 5.33618 21.7744 11.2444C21.7744 17.1418 16.8975 22.0188 11 22.0188ZM9.81836 16.4436C10.0977 16.4436 10.334 16.3147 10.5059 16.0461L15.8125 7.74243C15.9199 7.5813 16.0166 7.38794 16.0166 7.21606C16.0166 6.82935 15.6729 6.57153 15.3184 6.57153C15.0928 6.57153 14.8779 6.71118 14.7275 6.95825L9.78613 14.7786L7.26172 11.6741C7.06836 11.4163 6.875 11.3303 6.63867 11.3303C6.27344 11.3303 5.97266 11.6311 5.97266 12.0071C5.97266 12.2004 6.05859 12.3831 6.17676 12.5549L9.09863 16.0461C9.31348 16.3254 9.53906 16.4436 9.81836 16.4436Z" fill="white"/>
</svg>
