<svg width="16" height="15" viewBox="0 0 16 15" fill="none" xmlns="http://www.w3.org/2000/svg">
<path d="M3.40592 14.6066C3.18034 14.4357 3.12565 14.1554 3.26921 13.7384L4.71843 9.3634L0.972332 6.66321C0.616863 6.41028 0.486981 6.15051 0.575848 5.87707C0.664715 5.61047 0.917645 5.47375 1.36198 5.47375L5.9694 5.5011L7.37761 1.10559C7.51433 0.681763 7.71257 0.48352 7.99968 0.483521C8.27995 0.483521 8.48503 0.681763 8.62175 1.10559L10.0299 5.5011L14.6374 5.47376C15.0749 5.47376 15.3278 5.61048 15.4167 5.87708C15.5055 6.15051 15.3825 6.41028 15.027 6.66321L11.2741 9.3634L12.7301 13.7384C12.8737 14.1554 12.819 14.4357 12.5866 14.6066C12.361 14.7775 12.0739 14.7296 11.7253 14.4698L7.99967 11.7423L4.27409 14.4698C3.91862 14.7296 3.63835 14.7775 3.40592 14.6066Z" fill="white"/>
</svg>
